PathFileType	4	(X/Y/Z)	outputs\dynamic_markers.trc
DataRate	CameraRate	NumFrames	NumMarkers	Units	OrigDataRate	OrigDataStartFrame	OrigNumFrames
360.000000	360.000000	4	45	m	360.000000	562	643
Frame#	Time	C7			CLAV			LANK			LASI			LBHD			LELB			LFHD			LFIN			LFRM			LHEE			LKNE			LMANK			LMELB			LMKNE			LPSI			LSHO			LTHI			LTIB			LTOE			LUPA			LWRA			LWRB			RANK			RASI			RBAK			RBHD			RELB			RFHD			RFIN			RFRM			RHEE			RKNE			RMANK			RMELB			RMKNE			RPSI			RSHO			RTHI			RTIB			RTOE			RUPA			RWRA			RWRB			STRN			T10			
		X1	Y1	Z1	X2	Y2	Z2	X3	Y3	Z3	X4	Y4	Z4	X5	Y5	Z5	X6	Y6	Z6	X7	Y7	Z7	X8	Y8	Z8	X9	Y9	Z9	X10	Y10	Z10	X11	Y11	Z11	X12	Y12	Z12	X13	Y13	Z13	X14	Y14	Z14	X15	Y15	Z15	X16	Y16	Z16	X17	Y17	Z17	X18	Y18	Z18	X19	Y19	Z19	X20	Y20	Z20	X21	Y21	Z21	X22	Y22	Z22	X23	Y23	Z23	X24	Y24	Z24	X25	Y25	Z25	X26	Y26	Z26	X27	Y27	Z27	X28	Y28	Z28	X29	Y29	Z29	X30	Y30	Z30	X31	Y31	Z31	X32	Y32	Z32	X33	Y33	Z33	X34	Y34	Z34	X35	Y35	Z35	X36	Y36	Z36	X37	Y37	Z37	X38	Y38	Z38	X39	Y39	Z39	X40	Y40	Z40	X41	Y41	Z41	X42	Y42	Z42	X43	Y43	Z43	X44	Y44	Z44	X45	Y45	Z45	

563	1.561111111111111	1.397029206786222	1.044738806305625	0.1302409496340804	1.535706921537098	0.9892537307359714	0.1615176359304796	1.73669069263243	-0.06190165212350517	0.1485344682776571	1.290760305375728	0.6234459137874948	0.1067114025840132	1.444672840332654	1.182823925988179	0.03631935442141404	1.389054162224634	0.6838071555687845	-0.2168676905909438	1.57052347879706	1.229281739451344	0.05797331845910106	1.699615538551771	0.548871595911993	-0.2095522867416549	1.528748691063561	0.6113303542495251	-0.2036189135794715	1.65386485901456	-0.02344897708057325	0.2114401486887271	1.599530828987549	0.3989368562842076	0.05004813376513393	1.759110121659643	-0.04509227500853134	0.2649427594899834	1.360662687145821	0.6440088580689159	-0.1489353689618886	1.642148174730147	0.401029916066892	0.1767391901175343	1.153500721957785	0.7139543361844355	0.2346012702547178	1.462569222054717	0.9945875910317176	-0.02729369130723167	1.38988435328671	0.4989893193284343	0.02691462241877408	1.639226308149398	0.2159240021828926	0.06599422088304238	1.919074772793389	-0.04919144209617016	0.2152315887593521	1.450321293866876	0.8279942541754517	-0.131963553166291	1.634568047879927	0.6206050944812348	-0.159701249688078	1.615683367654233	0.5488898769352771	-0.1290650778260806	0.5091364581907917	0.07327846793071238	0.5407687789991559	1.361531494817795	0.5759244226318808	0.3394617754165812	1.320159552431236	0.9061914367830194	0.2633229052749498	1.401596852355924	1.204540245222278	0.1700363691746415	1.248720894678514	1.093316569412752	0.5710466651570844	1.531357488904896	1.255047515551539	0.2106249090465714	1.035895976117112	1.173038695325426	0.3892808403971738	1.13453723914119	1.147385623451745	0.4835658911841513	0.5835333978780215	0.128772127025785	0.5375599377246246	1.015207864168949	0.1380461545919815	0.4114630619159893	0.5489632693158444	0.09251267446989268	0.4379626056687421	1.290062120131965	1.171735850858982	0.5740015823594795	0.9767095392224289	0.1378778039625281	0.2975684983756005	1.217247699911373	0.709584800111126	0.3452987389579881	1.351731465608832	1.056427377294328	0.2667156579690146	1.144639096993877	0.328385727990032	0.4251478272300375	0.7982744675326792	0.1124980821724124	0.4996818475151962	0.4481278768477109	-0.01269432994587849	0.3912980508138972	1.28579103297554	1.046894756573009	0.4049776549655428	1.102402654963163	1.204036661101613	0.3800222794206733	1.065283668172282	1.220533082050872	0.4341631005941805	1.542383685003505	0.8163679300254975	0.1655994139144681	1.236746199746999	0.7904239182252087	0.268769861883504	
564	1.563888888888889	1.403527100543928	1.04336769740101	0.1271133048481303	1.541964611113857	0.9845537811544062	0.1520099240610182	1.736807158849455	-0.06208733474512437	0.1485061436293326	1.290224862115173	0.624675488622793	0.1071693034297766	1.452323979586928	1.18146631612418	0.03036499265049551	1.387681687379988	0.6710506979803503	-0.2113724860831782	1.579534525997337	1.225533784847354	0.04936060628124567	1.699740568750498	0.5405646222921789	-0.207563916050661	1.529034212577151	0.6011942533825628	-0.1991976724163404	1.654027883584918	-0.02344766124275147	0.2114485303521295	1.598901139030334	0.3989235387691816	0.05071114900572293	1.759289712964393	-0.04522700224000042	0.2648378502348403	1.362075651623721	0.6330422610757626	-0.1416960084323728	1.641715076075345	0.39992693054534	0.1773169870850833	1.155679013599599	0.7165422456215325	0.2373984178409193	1.460023649319464	0.9896988511673842	-0.03313810119292144	1.388877281410336	0.4998824344153103	0.02815437412912965	1.639138031450431	0.2155959708691142	0.06643958648916277	1.919277553655774	-0.04936704576057849	0.2150628695328724	1.446622487255117	0.8195702639295089	-0.132741535860209	1.635570352778387	0.6135032688414187	-0.1584789750161714	1.618527298170242	0.5426189224568011	-0.1247094812956765	0.51659626613513	0.07459390206070395	0.5429524028860429	1.36471316060714	0.5781095254928382	0.3380294513982358	1.330244937710144	0.909453965103652	0.2655898033634083	1.412686720376125	1.20221160572962	0.165471173424292	1.282217999977664	1.101455123431729	0.580756449269505	1.544288111809552	1.249959229561884	0.2034136341121379	1.057422248556968	1.182611431139472	0.4237464144776135	1.161882020432127	1.156066719480958	0.5056264116700789	0.5909631701657035	0.1300088706984203	0.5395856894519995	1.022855732140992	0.1355398032574708	0.4117241065293443	0.5566032653132923	0.09330200986307452	0.4401419039676318	1.325842966510013	1.178651218225693	0.5787109181388752	0.9838903694049561	0.1346166960633231	0.2979794185739376	1.221095864852112	0.7119296590438808	0.3471309062138855	1.36600449388343	1.058448948870799	0.2669017777881784	1.150064022618154	0.3275947238994907	0.4251103872445241	0.806320387481731	0.111346905898658	0.500937092184453	0.4560697215627218	-0.01213238568499945	0.3937394287880551	1.307026358317951	1.051942228954528	0.4111570775072356	1.123949936161351	1.213293427577347	0.4068475829666786	1.091554458379801	1.227541473102801	0.4644336391533988	1.545046004928428	0.8121431605005088	0.1569637347238025	1.240374868275435	0.7924122356469748	0.2704200040814191	
565	1.566666666666667	1.409918016348851	1.04210627774602	0.1239132722206047	1.547708332954365	0.9798137247771274	0.1427302080379817	1.736919360928544	-0.06225620595186093	0.1484861191892068	1.289713579881959	0.6259083828993771	0.1077466600024798	1.459744751644458	1.180089848513413	0.02439685024544335	1.386323329343992	0.6591363816176872	-0.2054498482870867	1.588224428156317	1.221616306478452	0.04067109224261847	1.699796818721696	0.532943264543328	-0.2053936620356912	1.529258562040769	0.5918145006227998	-0.1945446460703223	1.654184546190877	-0.02344345565929657	0.2114629554840952	1.598325868250512	0.3990058983495164	0.05146541016700558	1.759461436855426	-0.04535432593567376	0.264747481933168	1.363566490444797	0.6229385838114524	-0.1341901775954275	1.641251359829019	0.3989151663976281	0.1779999334695451	1.157709309767693	0.7191095612868513	0.2399470658594236	1.457377459233211	0.9850376982743168	-0.03849781270281739	1.387974257412143	0.5008696492638192	0.02943270727367271	1.639050813247285	0.2153676605774875	0.06693396889856947	1.919478573062325	-0.04954060861008089	0.2149115743281609	1.442874211784832	0.8116723550173613	-0.133009728239721	1.63640166109464	0.6069403363023771	-0.1570852740345785	1.621233325596545	0.5369814699214145	-0.1204111800974294	0.5241021600906484	0.07606171608472928	0.5451126879454722	1.367543599939162	0.5803916394075881	0.3368285155052194	1.340244537485455	0.9127005246460609	0.2674585587845046	1.423622156112112	1.199833622115875	0.1607835890275463	1.315528583469689	1.109042746427445	0.5885164096871213	1.556972491899254	1.244652699852447	0.1960011935414983	1.08198442317058	1.193363340349564	0.4581174916996432	1.19066870118053	1.164950261987323	0.5266301770019609	0.598445443347084	0.1314124941639963	0.5415552797065627	1.030501275360005	0.1330464295700692	0.4119066915561531	0.5643085019373969	0.09419219067808166	0.4422589639393469	1.361018098053145	1.184298437172987	0.5819027601554054	0.9910671473700178	0.1314805581184735	0.2983282313719038	1.224560725254744	0.714228243574626	0.3487585116624011	1.380381300434923	1.06041115022481	0.2666078077248987	1.155319268609999	0.326861960213694	0.4250594050411787	0.8144508649136357	0.1102096017368217	0.5021289688445546	0.4640671886713811	-0.01152480566167925	0.3961731463117019	1.328307798286878	1.056819669610391	0.416159969471299	1.147980778434051	1.223220573491242	0.4338182519121629	1.120182515041917	1.235024879745544	0.4944578683676332	1.547192967573584	0.807959631124079	0.1487424217739171	1.243758911123382	0.794395164615969	0.27192509379694	
566	1.569444444444444	1.416207771434397	1.040952476247088	0.1206511111258445	1.552968831404723	0.9750628324744699	0.1337391326787072	1.737024031915969	-0.06240771900779551	0.1484741527098881	1.289233518507907	0.6271462387827323	0.1084351885064509	1.466935719336826	1.178664080618579	0.01843162525063185	1.384964245200234	0.6480753735206154	-0.1991576930176628	1.596578918721709	1.217503902244928	0.03191344741409742	1.699765534024842	0.5259943817695104	-0.2030764007725483	1.529397532716826	0.5831819803592581	-0.1897004362935758	1.654331470815795	-0.02343898027721282	0.2114834231611304	1.597788916407046	0.3991739732616107	0.05230299617327295	1.759622909335064	-0.04547264834387335	0.2646708297323025	1.365107122777611	0.6137009556632	-0.1264696554725093	1.640747960880748	0.3980073037468035	0.1787802839881507	1.159583391005258	0.7216513247754045	0.2422605738640346	1.454704020001016	0.9806094129365884	-0.04338045089211492	1.387174962591212	0.5019469626773799	0.03074231058416967	1.638941732530036	0.2152329241221093	0.06747433585536526	1.919674039882558	-0.04970648560365415	0.2147761752736277	1.439117738569111	0.8043037583229682	-0.1328039610490116	1.63704574167079	0.6009073448948288	-0.1555381040716283	1.623766728688107	0.5319500689594699	-0.1161865931706851	0.5316471769094033	0.07767071096147238	0.5472430697568784	1.370040841479393	0.5827465471931615	0.3358698943825829	1.350095214278459	0.9159148756482437	0.2689400278474071	1.434408657823588	1.197403350296041	0.1559766087823696	1.348422705117851	1.116081600323963	0.5943648602109647	1.569400601934415	1.239135454148733	0.188380346542951	1.109700410120219	1.205068611761252	0.4919741829165221	1.220842872728272	1.173926758651963	0.5463823835593019	0.6059729672369392	0.1329731264772664	0.5434689423199816	1.038143113781242	0.1305924650317104	0.4120127466205843	0.5720775013609696	0.09517893105316069	0.4443127507720846	1.395348905983527	1.188704884198103	0.5836972902126837	0.9982395378313058	0.1285065801051946	0.2986164153312036	1.227647247677916	0.716479346184258	0.3502028999418971	1.394808149389257	1.062283671741431	0.2658459337426924	1.160418608792293	0.3261966070407583	0.4250023116623244	0.8226623431904948	0.109103664836337	0.5032568833863165	0.4721225519879365	-0.01087445424382959	0.3985879305994972	1.349504329059136	1.061504392238834	0.4199802857988429	1.174593150248213	1.23361001517734	0.4606225546349442	1.151198464592362	1.242844953830156	0.523883604164163	1.54886548039335	0.8038330525062743	0.1409752494124415	1.246900158048801	0.7963761810276206	0.2732995762807645	
